<?xml version="1.0" encoding="UTF-8"?>
<svg xmlns="http://www.w3.org/2000/svg" xmlns:xlink="http://www.w3.org/1999/xlink" viewBox="0 0 48 48" width="48px" height="48px">
<g id="surface48801720">
<path style=" stroke:none;fill-rule:nonzero;fill:rgb(5.882353%,43.529412%,92.54902%);fill-opacity:1;" d="M 34 42 L 28 42 L 24 47 L 20 42 L 14 42 C 9.582031 42 6 38.417969 6 34 L 6 14 C 6 9.582031 9.582031 6 14 6 L 34 6 C 38.417969 6 42 9.582031 42 14 L 42 34 C 42 38.417969 38.417969 42 34 42 Z M 34 42 "/>
<path style=" stroke:none;fill-rule:nonzero;fill:rgb(92.54902%,93.725491%,94.509804%);fill-opacity:1;" d="M 19 13 L 22 13 L 22 27 L 19 27 Z M 19 13 "/>
<path style=" stroke:none;fill-rule:nonzero;fill:rgb(92.54902%,93.725491%,94.509804%);fill-opacity:1;" d="M 26 13 L 29 13 L 29 27 L 26 27 Z M 26 13 "/>
<path style=" stroke:none;fill-rule:nonzero;fill:rgb(92.54902%,93.725491%,94.509804%);fill-opacity:1;" d="M 31 15 L 31 18 L 17 18 L 17 15 Z M 31 15 "/>
<path style=" stroke:none;fill-rule:nonzero;fill:rgb(92.54902%,93.725491%,94.509804%);fill-opacity:1;" d="M 31 22 L 31 25 L 17 25 L 17 22 Z M 31 22 "/>
<path style=" stroke:none;fill-rule:nonzero;fill:rgb(92.54902%,93.725491%,94.509804%);fill-opacity:1;" d="M 24 36 C 19.25 36 14.734375 33.523438 11.914062 29.378906 C 11.449219 28.695312 11.628906 27.761719 12.3125 27.296875 C 12.996094 26.832031 13.929688 27.007812 14.394531 27.691406 C 16.6875 31.066406 20.1875 33 24 33 C 27.8125 33 31.3125 31.066406 33.605469 27.691406 C 34.070312 27.007812 35.003906 26.832031 35.6875 27.296875 C 36.371094 27.761719 36.550781 28.695312 36.085938 29.378906 C 33.265625 33.523438 28.75 36 24 36 Z M 24 36 "/>
</g>
</svg>
